<svg xmlns="http://www.w3.org/2000/svg" version="1.1" xmlns:xlink="http://www.w3.org/1999/xlink" xmlns:svgjs="http://svgjs.com/svgjs" width="1600" height="6220" preserveAspectRatio="none" viewBox="0 0 1600 6220"><g mask="url(&quot;#SvgjsMask1876&quot;)" fill="none"><rect width="1600" height="6220" x="0" y="0" fill="url(#SvgjsLinearGradient1877)"></rect><path d="M1600 0L1468.85 0L1600 278.8z" fill="rgba(255, 255, 255, .1)"></path><path d="M1468.85 0L1600 278.8L1600 303.67L1126.9699999999998 0z" fill="rgba(255, 255, 255, .075)"></path><path d="M1126.97 0L1600 303.67L1600 1118.56L807.9000000000001 0z" fill="rgba(255, 255, 255, .05)"></path><path d="M807.9000000000001 0L1600 1118.56L1600 3718.74L769.7900000000001 0z" fill="rgba(255, 255, 255, .025)"></path><path d="M0 6220L298.26 6220L0 3670.92z" fill="rgba(0, 0, 0, .1)"></path><path d="M0 3670.92L298.26 6220L772.54 6220L0 3635.41z" fill="rgba(0, 0, 0, .075)"></path><path d="M0 3635.41L772.54 6220L936.0699999999999 6220L0 2157.93z" fill="rgba(0, 0, 0, .05)"></path><path d="M0 2157.93L936.0699999999999 6220L1010.9899999999999 6220L0 1869.59z" fill="rgba(0, 0, 0, .025)"></path></g><defs><mask id="SvgjsMask1876"><rect width="1600" height="6220" fill="#ffffff"></rect></mask><linearGradient x1="172.19%" y1="18.57%" x2="-72.19%" y2="81.43%" gradientUnits="userSpaceOnUse" id="SvgjsLinearGradient1877"><stop stop-color="rgba(58, 16, 120, 1)" offset="0"></stop><stop stop-color="rgba(40, 75, 172, 1)" offset="0"></stop></linearGradient></defs></svg>